<svg id="Layer_1" data-name="Layer 1" xmlns="http://www.w3.org/2000/svg" viewBox="0 0 328.6 357.91"><defs><style>.cls-1{fill:#231f20;}</style></defs><path class="cls-1" d="M458,248.21l-42.19-3.15s-80,37.47-88.16,41.56c-7.24-16.69-6.61-36.21,0-47.86,83-44.45,116-44.45,200.26,5.67-9.16,4.18-196.8,89.11-211,96.35-7.55,59.51,105.48,116.5,105.48,116.5s139.49-92.89,125-168.77l-148.62,69.9,37.78,6.3s46.42-24.79,66.76-35.27c24.85,4.36-79.08,97.61-79.08,97.61s-89.16-45.46-71.43-71.79c20.66-9.88,187.66-89.73,194.59-93.2,5-11.33,5.66-30.23,0-39-58.62-57.12-174.86-55.83-250.64,0-7.53,10.68-13.22,68,12.6,96.35Z" transform="translate(-262.56 -99.38)"/><path class="cls-1" d="M262.93,152.78a34.34,34.34,0,0,1,9.55-18.55,51.79,51.79,0,0,1,21.21-12.95c11.1-3.74,21.3-4.07,30.07-1.27a30.88,30.88,0,0,1,18.95,16.06q-12.7,2.79-25.24,6.46a15.25,15.25,0,0,0-8.12-4.22,19.91,19.91,0,0,0-10,.94c-5.45,1.84-9.21,5-11.18,9.39s-1.87,9.19.2,14.44,5.28,9,9.42,11,8.61,2.21,13.54.54a18.57,18.57,0,0,0,7.8-4.84,16,16,0,0,0,4-7.87Q335,158.43,347,155.79a36,36,0,0,1-8.15,22.55c-5.19,6.43-12.15,11-21.21,14a47.62,47.62,0,0,1-20.59,2.57A38,38,0,0,1,279,188.23a38.7,38.7,0,0,1-12.88-15.54A33.79,33.79,0,0,1,262.93,152.78Z" transform="translate(-262.56 -99.38)"/><path class="cls-1" d="M363.48,177.71a9.75,9.75,0,0,1-4.81-6.81,9.44,9.44,0,0,1,2.05-8.16c2-2.42,4.94-4,8.86-4.59a13.5,13.5,0,0,1,9.73,1.66,9.5,9.5,0,0,1,4.45,7.14,9.83,9.83,0,0,1-2.49,7.9,13.3,13.3,0,0,1-8.39,4.27A13.73,13.73,0,0,1,363.48,177.71Z" transform="translate(-262.56 -99.38)"/><path class="cls-1" d="M411.34,170.36a42.2,42.2,0,0,1-15.4-12.58,36.7,36.7,0,0,1-7.37-18.92,32.07,32.07,0,0,1,4.18-20,37.16,37.16,0,0,1,15.95-14.44,53.72,53.72,0,0,1,47.33.87,36.93,36.93,0,0,1,15.31,15,32.34,32.34,0,0,1,3.39,20.1,37,37,0,0,1-8,18.65,41.62,41.62,0,0,1-15.79,12,47.82,47.82,0,0,1-39.59-.72Zm33.77-19c3.52-3.22,5.55-7.64,6-13.35s-1-10.59-4.41-14.17-8.3-5.5-14.57-5.62-11.35,1.64-14.83,5.09-5.05,8.14-4.85,14,2,10.31,5.4,13.62,7.85,5,13.59,5.06S441.59,154.58,445.11,151.35Z" transform="translate(-262.56 -99.38)"/><path class="cls-1" d="M480.72,176.71a9.77,9.77,0,0,1-2.19-8,9.43,9.43,0,0,1,4.71-7c2.68-1.61,6-2,9.9-1.29a13.6,13.6,0,0,1,8.6,4.89,9.46,9.46,0,0,1,1.75,8.23,9.8,9.8,0,0,1-5.05,6.58,13.47,13.47,0,0,1-9.36,1.14A13.71,13.71,0,0,1,480.72,176.71Z" transform="translate(-262.56 -99.38)"/><path class="cls-1" d="M580.47,171.22a26.61,26.61,0,0,1-13.36,3.71c-5.2.18-10.87-.94-17.18-3.27q-5.32-2-10.71-3.77-3.94,11.82-7.88,23.62-10.12-3.37-20.39-6.1,9.44-35.64,18.88-71.29,18.7,4.95,37,11.71c7.08,2.61,12.67,6,16.7,10s6.44,8.25,7.26,12.69a21.23,21.23,0,0,1-1.89,13.2A22.21,22.21,0,0,1,580.47,171.22Zm-14.64-19.47c2-5-.33-8.83-7-11.25q-4.68-1.69-9.39-3.27l-5.07,15.18q4.51,1.51,9,3.14C559.75,157.86,563.87,156.68,565.83,151.75Z" transform="translate(-262.56 -99.38)"/></svg>